# xmcd
# 
# Track frame offsets:
#     150
#     5553
#     42765
#     53759
#     91941
#     114873
#     139907
#     147720
#     166152
#     184178
# 
# Disc length: 2780
# 
# Revision: 0
# Processed by: cddbd v1.5.2PL0 Copyright (c) Steve Scherf et al.
# Submitted via: BonkEnc v1.0.8
# 
DISCID=820ada0a
DTITLE=Submarine Silence - Submarine Silence
DYEAR=2002
DGENRE=Progressive Rock
TTITLE0=submarine silence - submarine silence - 01 - the door
TTITLE1=submarine silence - submarine silence - 02 - bicycle ride fr
TTITLE2=submarine silence - submarine silence - 03 - elven's lullaby
TTITLE3=submarine silence - submarine silence - 04 - mr. submarine's
TTITLE4=submarine silence - submarine silence - 05 - winter glows
TTITLE5=submarine silence - submarine silence - 06 - venice, a spook
TTITLE6=submarine silence - submarine silence - 07 - mr. submarine's
TTITLE7=submarine silence - submarine silence - 08 - shores where ti
TTITLE8=submarine silence - submarine silence - 09 - red sun
TTITLE9=submarine silence - submarine silence - 10 - porto di venere
EXTD=YEAR: 2002
EXTT0=
EXTT1=
EXTT2=
EXTT3=
EXTT4=
EXTT5=
EXTT6=
EXTT7=
EXTT8=
EXTT9=
PLAYORDER=
